# MagicaVoxel @ Ephtracy

# group
o 

# material
mtllib door.mtl
usemtl palette

# normals
vn -1 0 0
vn 1 0 0
vn 0 0 1
vn 0 0 -1
vn 0 -1 0
vn 0 1 0

# texcoords
vt 0.0214844 0.5
vt 0.970703 0.5
vt 0.994141 0.5

# verts
v -0.5 0 0.1
v -0.5 0 0
v -0.5 0 -0.1
v -0.5 0 -0.2
v -0.5 0.1 0.1
v -0.5 0.1 0
v -0.5 0.1 -0.1
v -0.5 0.1 -0.2
v -0.5 0.2 0.1
v -0.5 0.2 0
v -0.5 0.2 -0.1
v -0.5 0.2 -0.2
v -0.5 1 0
v -0.5 1 -0.1
v 0.5 0 0.1
v 0.5 0 0
v 0.5 0 -0.1
v 0.5 0 -0.2
v 0.5 0.1 0.1
v 0.5 0.1 0
v 0.5 0.1 -0.1
v 0.5 0.1 -0.2
v 0.5 0.2 0.1
v 0.5 0.2 0
v 0.5 0.2 -0.1
v 0.5 0.2 -0.2
v 0.5 1 0
v 0.5 1 -0.1
v -0.5 0 0.1
v -0.5 0.1 0.1
v -0.5 0.2 0.1
v -0.4 0 0.1
v -0.4 0.1 0.1
v -0.4 0.2 0.1
v -0.3 0 0.1
v -0.3 0.1 0.1
v -0.3 0.2 0.1
v -0.2 0 0.1
v -0.2 0.1 0.1
v -0.2 0.2 0.1
v -0.1 0 0.1
v -0.1 0.1 0.1
v -0.1 0.2 0.1
v 0 0 0.1
v 0 0.1 0.1
v 0 0.2 0.1
v 0.1 0 0.1
v 0.1 0.1 0.1
v 0.1 0.2 0.1
v 0.2 0 0.1
v 0.2 0.1 0.1
v 0.2 0.2 0.1
v 0.3 0 0.1
v 0.3 0.1 0.1
v 0.3 0.2 0.1
v 0.4 0 0.1
v 0.4 0.1 0.1
v 0.4 0.2 0.1
v 0.5 0 0.1
v 0.5 0.1 0.1
v 0.5 0.2 0.1
v -0.5 0.2 0
v -0.5 1 0
v -0.4 0.2 0
v -0.3 0.2 0
v -0.2 0.2 0
v -0.1 0.2 0
v 0 0.2 0
v 0.1 0.2 0
v 0.2 0.2 0
v 0.3 0.2 0
v 0.4 0.2 0
v 0.5 0.2 0
v 0.5 1 0
v -0.5 0.2 -0.1
v -0.5 1 -0.1
v -0.4 0.2 -0.1
v -0.3 0.2 -0.1
v -0.2 0.2 -0.1
v -0.1 0.2 -0.1
v 0 0.2 -0.1
v 0.1 0.2 -0.1
v 0.2 0.2 -0.1
v 0.3 0.2 -0.1
v 0.4 0.2 -0.1
v 0.5 0.2 -0.1
v 0.5 1 -0.1
v -0.5 0 -0.2
v -0.5 0.1 -0.2
v -0.5 0.2 -0.2
v -0.4 0 -0.2
v -0.4 0.1 -0.2
v -0.4 0.2 -0.2
v -0.3 0 -0.2
v -0.3 0.1 -0.2
v -0.3 0.2 -0.2
v -0.2 0 -0.2
v -0.2 0.1 -0.2
v -0.2 0.2 -0.2
v -0.1 0 -0.2
v -0.1 0.1 -0.2
v -0.1 0.2 -0.2
v 0 0 -0.2
v 0 0.1 -0.2
v 0 0.2 -0.2
v 0.1 0 -0.2
v 0.1 0.1 -0.2
v 0.1 0.2 -0.2
v 0.2 0 -0.2
v 0.2 0.1 -0.2
v 0.2 0.2 -0.2
v 0.3 0 -0.2
v 0.3 0.1 -0.2
v 0.3 0.2 -0.2
v 0.4 0 -0.2
v 0.4 0.1 -0.2
v 0.4 0.2 -0.2
v 0.5 0 -0.2
v 0.5 0.1 -0.2
v 0.5 0.2 -0.2
v -0.5 0 0.1
v -0.4 0 0.1
v -0.3 0 0.1
v -0.2 0 0.1
v -0.1 0 0.1
v 0 0 0.1
v 0.1 0 0.1
v 0.2 0 0.1
v 0.3 0 0.1
v 0.4 0 0.1
v 0.5 0 0.1
v -0.5 0 0
v -0.4 0 0
v -0.3 0 0
v -0.2 0 0
v -0.1 0 0
v 0 0 0
v 0.1 0 0
v 0.2 0 0
v 0.3 0 0
v 0.4 0 0
v 0.5 0 0
v -0.5 0 -0.1
v -0.4 0 -0.1
v -0.3 0 -0.1
v -0.2 0 -0.1
v -0.1 0 -0.1
v 0 0 -0.1
v 0.1 0 -0.1
v 0.2 0 -0.1
v 0.3 0 -0.1
v 0.4 0 -0.1
v 0.5 0 -0.1
v -0.5 0 -0.2
v -0.4 0 -0.2
v -0.3 0 -0.2
v -0.2 0 -0.2
v -0.1 0 -0.2
v 0 0 -0.2
v 0.1 0 -0.2
v 0.2 0 -0.2
v 0.3 0 -0.2
v 0.4 0 -0.2
v 0.5 0 -0.2
v -0.5 0.2 0.1
v -0.4 0.2 0.1
v -0.3 0.2 0.1
v -0.2 0.2 0.1
v -0.1 0.2 0.1
v 0 0.2 0.1
v 0.1 0.2 0.1
v 0.2 0.2 0.1
v 0.3 0.2 0.1
v 0.4 0.2 0.1
v 0.5 0.2 0.1
v -0.5 0.2 0
v -0.4 0.2 0
v -0.3 0.2 0
v -0.2 0.2 0
v -0.1 0.2 0
v 0 0.2 0
v 0.1 0.2 0
v 0.2 0.2 0
v 0.3 0.2 0
v 0.4 0.2 0
v 0.5 0.2 0
v -0.5 0.2 -0.1
v -0.4 0.2 -0.1
v -0.3 0.2 -0.1
v -0.2 0.2 -0.1
v -0.1 0.2 -0.1
v 0 0.2 -0.1
v 0.1 0.2 -0.1
v 0.2 0.2 -0.1
v 0.3 0.2 -0.1
v 0.4 0.2 -0.1
v 0.5 0.2 -0.1
v -0.5 0.2 -0.2
v -0.4 0.2 -0.2
v -0.3 0.2 -0.2
v -0.2 0.2 -0.2
v -0.1 0.2 -0.2
v 0 0.2 -0.2
v 0.1 0.2 -0.2
v 0.2 0.2 -0.2
v 0.3 0.2 -0.2
v 0.4 0.2 -0.2
v 0.5 0.2 -0.2
v -0.5 1 0
v 0.5 1 0
v -0.5 1 -0.1
v 0.5 1 -0.1

# faces
f 5/1/1 2/1/1 1/1/1
f 6/2/1 3/2/1 2/2/1
f 6/1/1 2/1/1 5/1/1
f 7/3/1 4/3/1 3/3/1
f 7/2/1 3/2/1 6/2/1
f 8/3/1 4/3/1 7/3/1
f 9/3/1 6/3/1 5/3/1
f 10/2/1 7/2/1 6/2/1
f 10/3/1 6/3/1 9/3/1
f 11/1/1 8/1/1 7/1/1
f 11/2/1 7/2/1 10/2/1
f 12/1/1 8/1/1 11/1/1
f 13/2/1 11/2/1 10/2/1
f 14/2/1 11/2/1 13/2/1
f 15/3/2 16/3/2 19/3/2
f 16/2/2 17/2/2 20/2/2
f 19/3/2 16/3/2 20/3/2
f 17/1/2 18/1/2 21/1/2
f 20/2/2 17/2/2 21/2/2
f 21/1/2 18/1/2 22/1/2
f 19/1/2 20/1/2 23/1/2
f 20/2/2 21/2/2 24/2/2
f 23/1/2 20/1/2 24/1/2
f 21/3/2 22/3/2 25/3/2
f 24/2/2 21/2/2 25/2/2
f 25/3/2 22/3/2 26/3/2
f 24/2/2 25/2/2 27/2/2
f 27/2/2 25/2/2 28/2/2
f 32/1/3 30/1/3 29/1/3
f 33/3/3 31/3/3 30/3/3
f 33/1/3 30/1/3 32/1/3
f 34/3/3 31/3/3 33/3/3
f 35/3/3 33/3/3 32/3/3
f 36/1/3 34/1/3 33/1/3
f 36/3/3 33/3/3 35/3/3
f 37/1/3 34/1/3 36/1/3
f 38/1/3 36/1/3 35/1/3
f 39/3/3 37/3/3 36/3/3
f 39/1/3 36/1/3 38/1/3
f 40/3/3 37/3/3 39/3/3
f 41/3/3 39/3/3 38/3/3
f 42/1/3 40/1/3 39/1/3
f 42/3/3 39/3/3 41/3/3
f 43/1/3 40/1/3 42/1/3
f 44/1/3 42/1/3 41/1/3
f 45/3/3 43/3/3 42/3/3
f 45/1/3 42/1/3 44/1/3
f 46/3/3 43/3/3 45/3/3
f 47/3/3 45/3/3 44/3/3
f 48/1/3 46/1/3 45/1/3
f 48/3/3 45/3/3 47/3/3
f 49/1/3 46/1/3 48/1/3
f 50/1/3 48/1/3 47/1/3
f 51/3/3 49/3/3 48/3/3
f 51/1/3 48/1/3 50/1/3
f 52/3/3 49/3/3 51/3/3
f 53/3/3 51/3/3 50/3/3
f 54/1/3 52/1/3 51/1/3
f 54/3/3 51/3/3 53/3/3
f 55/1/3 52/1/3 54/1/3
f 56/1/3 54/1/3 53/1/3
f 57/3/3 55/3/3 54/3/3
f 57/1/3 54/1/3 56/1/3
f 58/3/3 55/3/3 57/3/3
f 59/3/3 57/3/3 56/3/3
f 60/1/3 58/1/3 57/1/3
f 60/3/3 57/3/3 59/3/3
f 61/1/3 58/1/3 60/1/3
f 64/2/3 63/2/3 62/2/3
f 65/2/3 63/2/3 64/2/3
f 66/2/3 63/2/3 65/2/3
f 67/2/3 63/2/3 66/2/3
f 68/2/3 63/2/3 67/2/3
f 69/2/3 63/2/3 68/2/3
f 70/2/3 63/2/3 69/2/3
f 71/2/3 63/2/3 70/2/3
f 72/2/3 63/2/3 71/2/3
f 73/2/3 63/2/3 72/2/3
f 74/2/3 63/2/3 73/2/3
f 75/2/4 76/2/4 77/2/4
f 77/2/4 76/2/4 78/2/4
f 78/2/4 76/2/4 79/2/4
f 79/2/4 76/2/4 80/2/4
f 80/2/4 76/2/4 81/2/4
f 81/2/4 76/2/4 82/2/4
f 82/2/4 76/2/4 83/2/4
f 83/2/4 76/2/4 84/2/4
f 84/2/4 76/2/4 85/2/4
f 85/2/4 76/2/4 86/2/4
f 86/2/4 76/2/4 87/2/4
f 88/3/4 89/3/4 91/3/4
f 89/1/4 90/1/4 92/1/4
f 91/3/4 89/3/4 92/3/4
f 92/1/4 90/1/4 93/1/4
f 91/1/4 92/1/4 94/1/4
f 92/3/4 93/3/4 95/3/4
f 94/1/4 92/1/4 95/1/4
f 95/3/4 93/3/4 96/3/4
f 94/3/4 95/3/4 97/3/4
f 95/1/4 96/1/4 98/1/4
f 97/3/4 95/3/4 98/3/4
f 98/1/4 96/1/4 99/1/4
f 97/1/4 98/1/4 100/1/4
f 98/3/4 99/3/4 101/3/4
f 100/1/4 98/1/4 101/1/4
f 101/3/4 99/3/4 102/3/4
f 100/3/4 101/3/4 103/3/4
f 101/1/4 102/1/4 104/1/4
f 103/3/4 101/3/4 104/3/4
f 104/1/4 102/1/4 105/1/4
f 103/1/4 104/1/4 106/1/4
f 104/3/4 105/3/4 107/3/4
f 106/1/4 104/1/4 107/1/4
f 107/3/4 105/3/4 108/3/4
f 106/3/4 107/3/4 109/3/4
f 107/1/4 108/1/4 110/1/4
f 109/3/4 107/3/4 110/3/4
f 110/1/4 108/1/4 111/1/4
f 109/1/4 110/1/4 112/1/4
f 110/3/4 111/3/4 113/3/4
f 112/1/4 110/1/4 113/1/4
f 113/3/4 111/3/4 114/3/4
f 112/3/4 113/3/4 115/3/4
f 113/1/4 114/1/4 116/1/4
f 115/3/4 113/3/4 116/3/4
f 116/1/4 114/1/4 117/1/4
f 115/1/4 116/1/4 118/1/4
f 116/3/4 117/3/4 119/3/4
f 118/1/4 116/1/4 119/1/4
f 119/3/4 117/3/4 120/3/4
f 132/1/5 122/1/5 121/1/5
f 133/3/5 123/3/5 122/3/5
f 133/1/5 122/1/5 132/1/5
f 134/1/5 124/1/5 123/1/5
f 134/3/5 123/3/5 133/3/5
f 135/3/5 125/3/5 124/3/5
f 135/1/5 124/1/5 134/1/5
f 136/1/5 126/1/5 125/1/5
f 136/3/5 125/3/5 135/3/5
f 137/3/5 127/3/5 126/3/5
f 137/1/5 126/1/5 136/1/5
f 138/1/5 128/1/5 127/1/5
f 138/3/5 127/3/5 137/3/5
f 139/3/5 129/3/5 128/3/5
f 139/1/5 128/1/5 138/1/5
f 140/1/5 130/1/5 129/1/5
f 140/3/5 129/3/5 139/3/5
f 141/3/5 131/3/5 130/3/5
f 141/1/5 130/1/5 140/1/5
f 142/3/5 131/3/5 141/3/5
f 143/2/5 140/2/5 139/2/5
f 143/2/5 133/2/5 132/2/5
f 143/2/5 142/2/5 141/2/5
f 143/2/5 141/2/5 140/2/5
f 143/2/5 139/2/5 138/2/5
f 143/2/5 138/2/5 137/2/5
f 143/2/5 137/2/5 136/2/5
f 143/2/5 136/2/5 135/2/5
f 143/2/5 135/2/5 134/2/5
f 143/2/5 134/2/5 133/2/5
f 144/2/5 142/2/5 143/2/5
f 145/2/5 142/2/5 144/2/5
f 146/2/5 142/2/5 145/2/5
f 147/2/5 142/2/5 146/2/5
f 148/2/5 142/2/5 147/2/5
f 149/2/5 142/2/5 148/2/5
f 150/2/5 142/2/5 149/2/5
f 151/2/5 142/2/5 150/2/5
f 152/2/5 142/2/5 151/2/5
f 153/2/5 142/2/5 152/2/5
f 154/3/5 144/3/5 143/3/5
f 155/1/5 145/1/5 144/1/5
f 155/3/5 144/3/5 154/3/5
f 156/3/5 146/3/5 145/3/5
f 156/1/5 145/1/5 155/1/5
f 157/1/5 147/1/5 146/1/5
f 157/3/5 146/3/5 156/3/5
f 158/3/5 148/3/5 147/3/5
f 158/1/5 147/1/5 157/1/5
f 159/1/5 149/1/5 148/1/5
f 159/3/5 148/3/5 158/3/5
f 160/3/5 150/3/5 149/3/5
f 160/1/5 149/1/5 159/1/5
f 161/1/5 151/1/5 150/1/5
f 161/3/5 150/3/5 160/3/5
f 162/3/5 152/3/5 151/3/5
f 162/1/5 151/1/5 161/1/5
f 163/1/5 153/1/5 152/1/5
f 163/3/5 152/3/5 162/3/5
f 164/1/5 153/1/5 163/1/5
f 165/3/6 166/3/6 176/3/6
f 166/1/6 167/1/6 177/1/6
f 176/3/6 166/3/6 177/3/6
f 167/3/6 168/3/6 178/3/6
f 177/1/6 167/1/6 178/1/6
f 168/1/6 169/1/6 179/1/6
f 178/3/6 168/3/6 179/3/6
f 169/3/6 170/3/6 180/3/6
f 179/1/6 169/1/6 180/1/6
f 170/1/6 171/1/6 181/1/6
f 180/3/6 170/3/6 181/3/6
f 171/3/6 172/3/6 182/3/6
f 181/1/6 171/1/6 182/1/6
f 172/1/6 173/1/6 183/1/6
f 182/3/6 172/3/6 183/3/6
f 173/3/6 174/3/6 184/3/6
f 183/1/6 173/1/6 184/1/6
f 174/1/6 175/1/6 185/1/6
f 184/3/6 174/3/6 185/3/6
f 185/1/6 175/1/6 186/1/6
f 187/1/6 188/1/6 198/1/6
f 188/3/6 189/3/6 199/3/6
f 198/1/6 188/1/6 199/1/6
f 189/1/6 190/1/6 200/1/6
f 199/3/6 189/3/6 200/3/6
f 190/3/6 191/3/6 201/3/6
f 200/1/6 190/1/6 201/1/6
f 191/1/6 192/1/6 202/1/6
f 201/3/6 191/3/6 202/3/6
f 192/3/6 193/3/6 203/3/6
f 202/1/6 192/1/6 203/1/6
f 193/1/6 194/1/6 204/1/6
f 203/3/6 193/3/6 204/3/6
f 194/3/6 195/3/6 205/3/6
f 204/1/6 194/1/6 205/1/6
f 195/1/6 196/1/6 206/1/6
f 205/3/6 195/3/6 206/3/6
f 196/3/6 197/3/6 207/3/6
f 206/1/6 196/1/6 207/1/6
f 207/3/6 197/3/6 208/3/6
f 209/2/6 210/2/6 211/2/6
f 211/2/6 210/2/6 212/2/6
